<svg xmlns="http://www.w3.org/2000/svg" xmlns:xlink="http://www.w3.org/1999/xlink" width="136" height="24" viewBox="0 0 136 24">
    <defs>
        <path id="a" d="M0 14.706h12.528V.227H0z"/>
        <path id="c" d="M.6 14.706h12.882V.227H.6z"/>
        <path id="e" d="M0 15.067h131.397V.587H0z"/>
    </defs>
    <g fill="none" fill-rule="evenodd">
        <g transform="translate(2 4.36)">
            <mask id="b" fill="#fff">
                <use xlink:href="#a"/>
            </mask>
            <path fill="#000" fill-rule="nonzero" d="M3.74 13.586c2.223 0 3.947-.4 5.276-1.44 1.372-1.06 2.244-2.74 2.244-4.68 0-2.06-.976-3.759-2.389-4.799-1.308-.96-2.991-1.32-5.152-1.32H1.268v12.239H3.74zM0 .227h3.843c2.41 0 4.28.48 5.734 1.48 1.829 1.26 2.95 3.36 2.95 5.72 0 2.34-1.1 4.299-2.596 5.499-1.476 1.18-3.45 1.78-6.357 1.78H0V.227z" mask="url(#b)"/>
        </g>
        <g transform="translate(18.5 4.36)">
            <mask id="d" fill="#fff">
                <use xlink:href="#c"/>
            </mask>
            <path fill="#000" fill-rule="nonzero" d="M12.048.227h1.434l-5.797 7.92v6.56H6.417v-6.54L.601.227h1.475l2.41 3.3c.851 1.16 1.703 2.34 2.555 3.54h.041c.81-1.14 1.683-2.34 2.556-3.54l2.41-3.3z" mask="url(#d)"/>
        </g>
        <path fill="#000" fill-rule="nonzero" d="M38.257 19.067V4.587h1.205l6.877 8.82c.997 1.28 1.87 2.42 2.825 3.68l.042-.02c-.02-1.4-.02-2.88-.02-4.34v-8.14h1.225v14.48h-1.205l-6.877-8.82a352.86 352.86 0 0 1-2.826-3.68l-.04.02c.02 1.4.02 2.88.02 4.34v8.14h-1.226zm26.948-9.019c-.56-1.32-1.122-2.66-1.662-3.98h-.042a316.1 316.1 0 0 1-1.662 3.96l-1.537 3.6h6.42l-1.517-3.58zm-2.285-5.46h1.205l6.295 14.479h-1.371l-1.85-4.32h-7.375l-1.849 4.32h-1.309L62.92 4.588zm17.246 5.2c-.75-1.04-1.539-2.14-2.244-3.14l-.042.02c.02 1.16.02 2.44.02 3.7v8.699h-1.225V4.588H77.9l5.838 8.08 5.838-8.08h1.226v14.479h-1.268v-8.7c0-1.26 0-2.54.02-3.699l-.04-.02c-.707 1-1.496 2.1-2.245 3.14l-3.552 4.92-3.552-4.92h.001z"/>
        <g transform="translate(2 4)">
            <mask id="f" fill="#fff">
                <use xlink:href="#e"/>
            </mask>
            <path fill="#000" fill-rule="nonzero" d="M96.7 15.067h1.266V.587h-1.267l.001 14.48zm13.089-13.359h-5.173V.588h11.613v1.12h-5.173v13.359h-1.267V1.708zm13.09-1.12h8.331v1.12h-7.064v5.28h6.254v1.12h-6.254v5.84h7.25v1.12h-8.517V.588z" mask="url(#f)"/>
        </g>
    </g>
</svg>
